<?xml version="1.0" encoding="UTF-8"?>
<!DOCTYPE svg PUBLIC "-//W3C//DTD SVG 1.1//EN" "http://www.w3.org/Graphics/SVG/1.1/DTD/svg11.dtd">
<!-- Creator: CorelDRAW 2020 (64 Bit) -->
<svg xmlns="http://www.w3.org/2000/svg" xml:space="preserve" width="210mm" height="297mm" version="1.1" style="shape-rendering:geometricPrecision; text-rendering:geometricPrecision; image-rendering:optimizeQuality; fill-rule:evenodd; clip-rule:evenodd"
viewBox="0 0 210000 297000"
 xmlns:xlink="http://www.w3.org/1999/xlink"
 xmlns:xodm="http://www.corel.com/coreldraw/odm/2003">
 <defs>
  <style type="text/css">
   <![CDATA[
    .str0 {stroke:#373435;stroke-width:705.6;stroke-miterlimit:22.9256}
    .fil0 {fill:none}
   ]]>
  </style>
 </defs>
 <g id="Camada_x0020_1">
  <metadata id="CorelCorpID_0Corel-Layer"/>
  <g id="_2195030295056">
   <polygon class="fil0 str0" points="106232.3,35397.9 108299,36591.2 110365.8,37784.5 110365.8,40170.8 110365.8,42557.2 108299,43750.4 106232.3,44943.7 104165.5,43750.4 102098.7,42557.2 102098.7,40170.8 102098.7,37784.5 104165.5,36591.2 "/>
   <line class="fil0 str0" x1="106232.2" y1="35397.9" x2="106232.2" y2= "30630.5" />
   <line class="fil0 str0" x1="106232.2" y1="34221.1" x2="108055.6" y2= "32106.2" />
   <polygon class="fil0 str0" points="108055.6,32106.2 107642.1,29892.2 110815.1,26600.5 114598.9,26447.8 116524.7,27966.4 114734.6,30214.6 111934.9,30537 110255.2,32233.8 108055.6,32106.2 "/>
   <polygon class="fil0 str0" points="97763.1,34770.3 97349.6,32556.3 100522.6,29264.5 104306.4,29111.9 106232.2,30630.5 104442.1,32878.7 101642.5,33201 99962.7,34897.8 97763.1,34770.3 "/>
   <polygon class="fil0 str0" points="107310.5,37705 108206.8,38222.5 109103.1,38739.9 109103.1,39775 109103.1,40810 108206.8,41327.5 107310.5,41845 106414.1,41327.5 105517.8,40810 105517.8,39775 105517.8,38739.9 106414.1,38222.5 "/>
  </g>
 </g>
</svg>
