<?xml version="1.0" encoding="UTF-8"?>
<!DOCTYPE svg PUBLIC "-//W3C//DTD SVG 1.1//EN" "http://www.w3.org/Graphics/SVG/1.1/DTD/svg11.dtd">
<!-- Creator: CorelDRAW 2020 (64 Bit) -->
<svg xmlns="http://www.w3.org/2000/svg" xml:space="preserve" width="210mm" height="297mm" version="1.1" style="shape-rendering:geometricPrecision; text-rendering:geometricPrecision; image-rendering:optimizeQuality; fill-rule:evenodd; clip-rule:evenodd"
viewBox="0 0 210000 297000"
 xmlns:xlink="http://www.w3.org/1999/xlink"
 xmlns:xodm="http://www.corel.com/coreldraw/odm/2003">
 <defs>
  <style type="text/css">
   <![CDATA[
    .str0 {stroke:#373435;stroke-width:705.6;stroke-miterlimit:22.9256}
    .fil0 {fill:none}
   ]]>
  </style>
 </defs>
 <g id="Camada_x0020_1">
  <metadata id="CorelCorpID_0Corel-Layer"/>
  <g id="_2195209106032">
   <polygon class="fil0 str0" points="53336.9,38996.9 54624.5,39740.3 55912,40483.7 55912,41970.3 55912,43457 54624.5,44200.3 53336.9,44943.7 52049.4,44200.3 50761.8,43457 50761.8,41970.3 50761.8,40483.7 52049.4,39740.3 "/>
   <polygon class="fil0 str0" points="53336.9,27503.3 54624.5,28246.7 55912,28990.1 55912,30476.7 55912,31963.4 54624.5,32706.7 53336.9,33450.1 52049.4,32706.7 50761.8,31963.4 50761.8,30476.7 50761.8,28990.1 52049.4,28246.7 "/>
   <polygon class="fil0 str0" points="58287.1,33250.1 59574.7,33993.5 60862.2,34736.9 60862.2,36223.5 60862.2,37710.2 59574.7,38453.5 58287.1,39196.9 56999.6,38453.5 55712,37710.2 55712,36223.5 55712,34736.9 56999.6,33993.5 "/>
   <polygon class="fil0 str0" points="63237.3,38996.9 64524.9,39740.3 65812.4,40483.7 65812.4,41970.3 65812.4,43457 64524.9,44200.3 63237.3,44943.7 61949.8,44200.3 60662.2,43457 60662.2,41970.3 60662.2,40483.7 61949.8,39740.3 "/>
   <polygon class="fil0 str0" points="63237.3,27503.3 64524.9,28246.7 65812.4,28990.1 65812.4,30476.7 65812.4,31963.4 64524.9,32706.7 63237.3,33450.1 61949.8,32706.7 60662.2,31963.4 60662.2,30476.7 60662.2,28990.1 61949.8,28246.7 "/>
  </g>
 </g>
</svg>
