<?xml version="1.0" encoding="UTF-8"?>
<!DOCTYPE svg PUBLIC "-//W3C//DTD SVG 1.1//EN" "http://www.w3.org/Graphics/SVG/1.1/DTD/svg11.dtd">
<!-- Creator: CorelDRAW 2020 (64 Bit) -->
<svg xmlns="http://www.w3.org/2000/svg" xml:space="preserve" width="210mm" height="297mm" version="1.1" style="shape-rendering:geometricPrecision; text-rendering:geometricPrecision; image-rendering:optimizeQuality; fill-rule:evenodd; clip-rule:evenodd"
viewBox="0 0 210000 297000"
 xmlns:xlink="http://www.w3.org/1999/xlink"
 xmlns:xodm="http://www.corel.com/coreldraw/odm/2003">
 <defs>
  <style type="text/css">
   <![CDATA[
    .str0 {stroke:#373435;stroke-width:705.6;stroke-miterlimit:22.9256}
    .fil0 {fill:none}
   ]]>
  </style>
 </defs>
 <g id="Camada_x0020_1">
  <metadata id="CorelCorpID_0Corel-Layer"/>
  <g id="_2195072996672">
   <g>
    <g>
     <polygon class="fil0 str0" points="13905.5,29547.8 13905.5,27997.6 15578,26447.3 17250.4,27997.6 16321.7,28858.4 15578,28169 14090.4,29547.8 "/>
     <polygon class="fil0 str0" points="13905.5,31269.5 13905.5,29719.2 15578,28169 17250.4,29719.2 16321.7,30580 15578,29890.7 14090.4,31269.5 "/>
     <polygon class="fil0 str0" points="13905.5,32991.1 13905.5,31440.9 15578,29890.7 17250.4,31440.9 16321.7,32301.7 15578,31612.3 14090.4,32991.1 "/>
     <polygon class="fil0 str0" points="13905.5,34712.8 13905.5,33162.5 15578,31612.3 17250.4,33162.5 16321.7,34023.3 15578,33334 14090.4,34712.8 "/>
     <polygon class="fil0 str0" points="13905.5,36434.4 13905.5,34884.2 15578,33334 17250.4,34884.2 16321.7,35745 15578,35055.6 14090.4,36434.4 "/>
     <polygon class="fil0 str0" points="13905.5,38156.1 13905.5,36605.8 15578,35055.6 17250.4,36605.8 16321.7,37466.6 15578,36777.2 14090.4,38156.1 "/>
     <polygon class="fil0 str0" points="13928.1,38306.5 15578,36777.2 17250.4,38327.5 16321.7,39188.3 15578,38498.9 15216,38834.4 "/>
     <polygon class="fil0 str0" points="15216,38834.4 15578,38498.9 16513.7,39366.3 "/>
    </g>
    <path class="fil0 str0" d="M15664.8 26527.8l769.2 -663 1632.8 0 769.2 663 -1585.6 1469.8c0,0 -554.9,-514.4 -1585.6,-1469.8z"/>
    <g>
     <polygon class="fil0 str0" points="20595.3,29547.8 20595.3,27997.6 18922.8,26447.3 17250.4,27997.6 18179.1,28858.4 18922.8,28169 20410.4,29547.8 "/>
     <polygon class="fil0 str0" points="20595.3,31269.5 20595.3,29719.2 18922.8,28169 17250.4,29719.2 18179.1,30580 18922.8,29890.7 20410.4,31269.5 "/>
     <polygon class="fil0 str0" points="20595.3,32991.1 20595.3,31440.9 18922.8,29890.7 17250.4,31440.9 18179.1,32301.7 18922.8,31612.3 20410.4,32991.1 "/>
     <polygon class="fil0 str0" points="20595.3,34712.8 20595.3,33162.5 18922.8,31612.3 17250.4,33162.5 18179.1,34023.3 18922.8,33334 20410.4,34712.8 "/>
     <polygon class="fil0 str0" points="20595.3,36434.4 20595.3,34884.2 18922.8,33334 17250.4,34884.2 18179.1,35745 18922.8,35055.6 20410.4,36434.4 "/>
     <polygon class="fil0 str0" points="20595.3,38156.1 20595.3,36605.8 18922.8,35055.6 17250.4,36605.8 18179.1,37466.6 18922.8,36777.2 20410.4,38156.1 "/>
     <polygon class="fil0 str0" points="20572.7,38306.5 18922.8,36777.2 17250.4,38327.5 18179.1,39188.3 18922.8,38498.9 19284.8,38834.4 "/>
     <polygon class="fil0 str0" points="19284.8,38834.4 18922.8,38498.9 17987.1,39366.3 "/>
    </g>
   </g>
   <path class="fil0 str0" d="M21903.4 43006.4c0,0 -1308.1,524.2 -1308.1,524.2l0 1931.2c-557.4,321.9 -1114.9,643.8 -1672.4,965.6l-1672.5 965.6c-557.5,-321.8 -1115,-643.7 -1672.5,-965.6l-1672.4 -965.6c0,-643.7 0,-1287.5 0,-1931.2l-1308.1 -524.2 -1812 -5988 6465 2649.8 6465 -2649.8 -1812 5988z"/>
   <line class="fil0 str0" x1="17250.4" y1="39668.2" x2="13905.5" y2= "45461.8" />
   <line class="fil0 str0" x1="17250.4" y1="39668.2" x2="20595.3" y2= "45461.8" />
  </g>
 </g>
</svg>
