<?xml version="1.0" encoding="UTF-8"?>
<!DOCTYPE svg PUBLIC "-//W3C//DTD SVG 1.1//EN" "http://www.w3.org/Graphics/SVG/1.1/DTD/svg11.dtd">
<!-- Creator: CorelDRAW 2020 (64 Bit) -->
<svg xmlns="http://www.w3.org/2000/svg" xml:space="preserve" width="210mm" height="297mm" version="1.1" style="shape-rendering:geometricPrecision; text-rendering:geometricPrecision; image-rendering:optimizeQuality; fill-rule:evenodd; clip-rule:evenodd"
viewBox="0 0 210000 297000"
 xmlns:xlink="http://www.w3.org/1999/xlink"
 xmlns:xodm="http://www.corel.com/coreldraw/odm/2003">
 <defs>
  <style type="text/css">
   <![CDATA[
    .str0 {stroke:#373435;stroke-width:705.6;stroke-miterlimit:22.9256}
    .fil0 {fill:none}
   ]]>
  </style>
 </defs>
 <g id="Camada_x0020_1">
  <metadata id="CorelCorpID_0Corel-Layer"/>
  <g id="_2195202701792">
   <polygon class="fil0 str0" points="30628.1,28150.6 31597.4,28710.2 32566.7,29269.9 32566.7,30389.1 32566.7,31508.3 31597.4,32067.9 30628.1,32627.5 29658.8,32067.9 28689.5,31508.3 28689.5,30389.1 28689.5,29269.9 29658.8,28710.2 "/>
   <polygon class="fil0 str0" points="36286.5,28150.6 37255.8,28710.2 38225.1,29269.9 38225.1,30389.1 38225.1,31508.3 37255.8,32067.9 36286.5,32627.5 35317.2,32067.9 34347.9,31508.3 34347.9,30389.1 34347.9,29269.9 35317.2,28710.2 "/>
   <polygon class="fil0 str0" points="41944.9,28150.6 42914.2,28710.2 43883.5,29269.9 43883.5,30389.1 43883.5,31508.3 42914.2,32067.9 41944.9,32627.5 40975.6,32067.9 40006.3,31508.3 40006.3,30389.1 40006.3,29269.9 40975.6,28710.2 "/>
   <polygon class="fil0 str0" points="30628.1,34408.7 31597.4,34968.3 32566.7,35528 32566.7,36647.2 32566.7,37766.3 31597.4,38326 30628.1,38885.6 29658.8,38326 28689.5,37766.3 28689.5,36647.2 28689.5,35528 29658.8,34968.3 "/>
   <polygon class="fil0 str0" points="36286.5,34408.7 37255.8,34968.3 38225.1,35528 38225.1,36647.2 38225.1,37766.3 37255.8,38326 36286.5,38885.6 35317.2,38326 34347.9,37766.3 34347.9,36647.2 34347.9,35528 35317.2,34968.3 "/>
   <polygon class="fil0 str0" points="41944.9,34408.7 42914.2,34968.3 43883.5,35528 43883.5,36647.2 43883.5,37766.3 42914.2,38326 41944.9,38885.6 40975.6,38326 40006.3,37766.3 40006.3,36647.2 40006.3,35528 40975.6,34968.3 "/>
   <polygon class="fil0 str0" points="30628.1,40666.8 31597.4,41226.4 32566.7,41786.1 32566.7,42905.3 32566.7,44024.4 31597.4,44584.1 30628.1,45143.7 29658.8,44584.1 28689.5,44024.4 28689.5,42905.3 28689.5,41786.1 29658.8,41226.4 "/>
   <polygon class="fil0 str0" points="36286.5,40666.8 37255.8,41226.4 38225.1,41786.1 38225.1,42905.3 38225.1,44024.4 37255.8,44584.1 36286.5,45143.7 35317.2,44584.1 34347.9,44024.4 34347.9,42905.3 34347.9,41786.1 35317.2,41226.4 "/>
   <polygon class="fil0 str0" points="41944.9,40666.8 42914.2,41226.4 43883.5,41786.1 43883.5,42905.3 43883.5,44024.4 42914.2,44584.1 41944.9,45143.7 40975.6,44584.1 40006.3,44024.4 40006.3,42905.3 40006.3,41786.1 40975.6,41226.4 "/>
  </g>
 </g>
</svg>
