<?xml version="1.0" encoding="UTF-8"?>
<!DOCTYPE svg PUBLIC "-//W3C//DTD SVG 1.1//EN" "http://www.w3.org/Graphics/SVG/1.1/DTD/svg11.dtd">
<!-- Creator: CorelDRAW 2020 (64 Bit) -->
<svg xmlns="http://www.w3.org/2000/svg" xml:space="preserve" width="210mm" height="297mm" version="1.1" style="shape-rendering:geometricPrecision; text-rendering:geometricPrecision; image-rendering:optimizeQuality; fill-rule:evenodd; clip-rule:evenodd"
viewBox="0 0 210000 297000"
 xmlns:xlink="http://www.w3.org/1999/xlink"
 xmlns:xodm="http://www.corel.com/coreldraw/odm/2003">
 <defs>
  <style type="text/css">
   <![CDATA[
    .str0 {stroke:#373435;stroke-width:705.6;stroke-miterlimit:22.9256}
    .fil0 {fill:none}
    .fil1 {fill:#373435;fill-rule:nonzero}
   ]]>
  </style>
 </defs>
 <g id="Camada_x0020_1">
  <metadata id="CorelCorpID_0Corel-Layer"/>
  <g id="_2195072949856">
   <polygon class="fil0 str0" points="86317.5,32036.6 89003.2,33587.3 91688.9,35137.9 91688.9,38238.8 91688.9,41339.8 89003.2,42890.4 86317.5,44441 83631.8,42890.4 80946.2,41339.8 80946.2,38238.8 80946.2,35137.9 83631.8,33587.3 "/>
   <path class="fil1" d="M84073.3 41326l0 -6174.4 1761.7 0c687.9,0 1168.6,31.7 1439.2,94.9 270.6,63.4 505.2,170 702.3,318.2 221.7,168.3 393,384.3 512.4,644.8 119.5,261.9 178.5,549.7 178.5,865 0,477.8 -118.1,866.4 -352.7,1165.8 -236,299.3 -578.5,497.9 -1029,595.8l1683.9 2489.9 -1899.8 0 -1416.2 -2418 0 2418 -1580.3 0zm1580.3 -3255.6l310.9 0c362.7,0 627.5,-61.9 794.4,-185.7 167,-123.7 250.4,-318 250.4,-581.5 0,-309.4 -77.7,-529.6 -233.1,-660.6 -156.9,-130.9 -417.4,-195.7 -785.8,-195.7l-336.8 0 0 1623.5z"/>
   <polygon class="fil0 str0" points="76686.2,30011.5 81890.7,30011.5 81890.7,34592.6 80946.2,35137.9 80946.2,35278.1 80946.2,35925.9 76686.2,35925.9 "/>
   <polygon class="fil0 str0" points="77428.4,35925.9 80946.2,35925.9 80946.2,38238.8 80946.2,39186.7 79349.5,39186.7 77428.4,39186.7 "/>
   <polygon class="fil0 str0" points="72224.1,35925.9 77428.4,35925.9 77428.4,39186.7 74145.2,39186.7 74145.2,41683 72224.1,41683 "/>
   <polygon class="fil0 str0" points="79349.5,39186.7 80946.2,39186.7 80946.2,41339.8 83631.8,42890.5 84553.8,43422.8 84553.8,44943.7 79349.5,44943.7 "/>
   <rect class="fil0 str0" x="74145.2" y="39186.6" width="5204.3" height="5757"/>
  </g>
 </g>
</svg>
